<?xml version="1.0"?>
<svg xmlns="http://www.w3.org/2000/svg" xmlns:xlink="http://www.w3.org/1999/xlink" xmlns:svgjs="http://svgjs.com/svgjs" version="1.1" width="512" height="512" x="0" y="0" viewBox="0 0 512 512" style="enable-background:new 0 0 512 512" xml:space="preserve"><g><g xmlns="http://www.w3.org/2000/svg"><path d="m120 288h-32c-13.23 0-24 10.77-24 24v176c0 13.23 10.77 24 24 24h32c13.23 0 24-10.77 24-24v-176c0-13.23-10.77-24-24-24z" fill="#737373" data-original="#000000" style=""/><path d="m488 320h-8v-40.671c13.696-2.924 24-15.113 24-29.669 0-142.79-114.363-249.66-248-249.66-137.054 0-248 110.925-248 248 0 14.88 10.211 27.426 24 30.988v41.012h-8c-13.255 0-24 10.745-24 24v112c0 13.255 10.745 24 24 24h21c1.657 0 3-1.343 3-3v-198.012c13.789-3.562 24-16.108 24-30.988 0-48.249 18.608-94.731 53.99-130.07 97.41-97.382 261.933-56.872 304.64 73.22 6.08 18.4 9.37 38.08 9.37 58.51 0 14.556 10.304 26.745 24 29.669v197.671c0 1.657 1.343 3 3 3h21c13.255 0 24-10.745 24-24v-112c0-13.255-10.745-24-24-24z" fill="#737373" data-original="#000000" style=""/><path d="m424 288h-32c-13.23 0-24 10.77-24 24v176c0 13.23 10.77 24 24 24h32c13.23 0 24-10.77 24-24v-176c0-13.23-10.77-24-24-24z" fill="#737373" data-original="#000000" style=""/><path d="m137.3 129.25c-15.172 15.152-27.115 32.629-35.534 52.03-1.045 2.409 1.336 4.904 3.801 3.998 17.744-6.518 33.664-17.568 45.803-32.168 53.876-64.796 153.503-65.934 208.65-.72 12.593 14.924 28.304 26.035 45.809 32.628 2.489.938 4.861-1.597 3.799-4.036-46.825-107.6-188.014-136.02-272.328-51.732z" fill="#737373" data-original="#000000" style=""/><path d="m176 376c-4.418 0-8 3.582-8 8v32c0 4.418 3.582 8 8 8s8-3.582 8-8v-32c0-4.418-3.582-8-8-8z" fill="#737373" data-original="#000000" style=""/><path d="m216 360c-4.418 0-8 3.582-8 8v64c0 4.418 3.582 8 8 8s8-3.582 8-8v-64c0-4.418-3.582-8-8-8z" fill="#737373" data-original="#000000" style=""/><path d="m336 376c-4.418 0-8 3.582-8 8v32c0 4.418 3.582 8 8 8s8-3.582 8-8v-32c0-4.418-3.582-8-8-8z" fill="#737373" data-original="#000000" style=""/><path d="m296 360c-4.418 0-8 3.582-8 8v64c0 4.418 3.582 8 8 8s8-3.582 8-8v-64c0-4.418-3.582-8-8-8z" fill="#737373" data-original="#000000" style=""/><path d="m257 344c-4.418 0-8 3.582-8 8v96c0 4.418 3.582 8 8 8s8-3.582 8-8v-96c0-4.418-3.582-8-8-8z" fill="#737373" data-original="#000000" style=""/><path d="m328 152.01c0-5.327-4.999-9.006-9.94-7.77-.102.017-97.367 24.186-97.97 24.79-1.38.637-3.043 2.462-3.65 4.37-.663 1.895-.44-4.621-.44 94.9-21.05-12.201-48 2.927-48 27.7 0 17.64 14.35 32 32 32 17.678 0 32-14.394 32-32v-73.75l80-20v42.05c-21.05-12.201-48 2.927-48 27.7 0 17.64 14.35 32 32 32 17.678 0 32-14.394 32-32z" fill="#737373" data-original="#000000" style=""/></g></g></svg>
