<?xml version="1.0"?>
<svg xmlns="http://www.w3.org/2000/svg" xmlns:xlink="http://www.w3.org/1999/xlink" xmlns:svgjs="http://svgjs.com/svgjs" version="1.1" width="512" height="512" x="0" y="0" viewBox="0 0 512 512" style="enable-background:new 0 0 512 512" xml:space="preserve"><g><path xmlns="http://www.w3.org/2000/svg" d="M248,208a80,80,0,1,0-80-80A80.091,80.091,0,0,0,248,208Zm0-144a64,64,0,1,1-64,64A64.072,64.072,0,0,1,248,64Z" fill="#737373" data-original="#000000" style=""/><path xmlns="http://www.w3.org/2000/svg" d="M219.984,166.919a8,8,0,0,0,7.985.027l56-32a8,8,0,0,0,0-13.892l-56-32A8,8,0,0,0,216,96v64A8,8,0,0,0,219.984,166.919ZM232,109.785,263.875,128,232,146.215Z" fill="#737373" data-original="#000000" style=""/><path xmlns="http://www.w3.org/2000/svg" d="M472,400a24.305,24.305,0,0,0-17.336,7.654,25.154,25.154,0,0,0-2.573,3.156,31.251,31.251,0,0,0-5.187-1.855l9.011-103.634,6.368-14.01a8,8,0,0,0,.554-1.706c.218-1.064,4.081-20.933-6.837-36.741V24a8,8,0,0,0-8-8H48a8,8,0,0,0-8,8V192.457L18.809,184.51a8,8,0,0,0-5.618,14.98L40,209.544V279h0l-7.765,31.06.007,0A7.983,7.983,0,0,0,32,312V456c0,.025,0,.049,0,.073,0,.1.01.195.015.292.008.2.02.393.043.585.011.093.027.185.042.277.031.2.068.4.114.6.008.038.012.077.021.114l8,32A8,8,0,0,0,48,496H152a8,8,0,0,0,7.761-6.06l8-32c.009-.038.013-.076.021-.114.046-.2.083-.4.114-.6.015-.093.031-.185.043-.278.022-.193.034-.388.042-.584,0-.1.014-.195.015-.293,0-.024,0-.048,0-.073V336h82.753l6.356,73.093A36.951,36.951,0,0,0,248,408c-22.094,0-28.438,15.7-30.649,25.493C204.254,437.854,192,449.851,192,464a32.036,32.036,0,0,0,32,32c5.188,0,12.5-2.249,18.637-5.729a39.9,39.9,0,0,0,3.7-2.369A24.831,24.831,0,0,0,264,496H432a8,8,0,0,0,7.97-7.307l.284-3.27A31.983,31.983,0,0,0,496,464a32.512,32.512,0,0,0-2.3-12.834,24.58,24.58,0,0,0,3.662-2.966A22.209,22.209,0,0,0,504,432,32.036,32.036,0,0,0,472,400ZM279.244,434.538a38.51,38.51,0,0,0-4.992-12.989L264,303.688A16,16,0,0,1,296,304c0,.117.012.231.018.347h-.01l2.5,57.418C291.85,368.086,288,375.709,288,384c0,9.1,4.625,17.393,12.516,24.043L303.645,480H291.7A31.8,31.8,0,0,0,296,464C296,451.812,289.184,440.175,279.244,434.538ZM162.246,288l-2.485-9.94A8,8,0,0,0,152,272H94.643l-1.882-16H251.535c-6.847,11.344-6.736,23.968-4.826,32ZM56,256H76.651l1.882,16H56Zm89.754,32,4,16H50.246l4-16ZM152,320v79.9c-25.141-.642-57.539-4.556-82.857-18.152C56.719,375.074,50.4,368.362,48,365.4V320ZM48,387.176c16.115,12.156,47.451,27.4,104,28.726V448H48ZM352,408c-28.287,0-48-12.648-48-24s19.713-24,48-24,48,12.648,48,24S380.287,408,352,408Zm-8-63.692a88.964,88.964,0,0,0-29.924,7.274L312,303.922A16,16,0,0,1,344,304Zm-27.052,73.335A90.942,90.942,0,0,0,344,423.692V480H319.659ZM360,423.692a90.942,90.942,0,0,0,27.052-6.049L384.341,480H360Zm0-79.384V304a16,16,0,0,1,32-.078l-2.072,47.66A88.964,88.964,0,0,0,360,344.308Zm40-61.453a31.959,31.959,0,0,0-48,0,31.959,31.959,0,0,0-48,0,31.929,31.929,0,0,0-42.463-4.966c-.048-6.721,2.2-16.324,13.524-23,7.441-4.386,14.249-4.867,20.809-1.471a27.243,27.243,0,0,1,8.581,7.172,8,8,0,0,0,14.52-3.91c.014-.169,1.555-15.3,20.249-21.771a33.384,33.384,0,0,0,3.952,6.288c6.029,7.612,12.648,9.584,17.139,9.9,5.366.374,10.848-1.256,16.37-4.86.941,1.239,4.514,5.888,4.695,6.13,4.655,6.264,9.757,9.726,15.6,10.585a19.063,19.063,0,0,0,2.778.2c4.933,0,9.935-1.928,15.2-5.847a47.8,47.8,0,0,0,5.61-4.858,20.211,20.211,0,0,1,14.479,2.5c12.206,6.948,13.008,20.7,12.58,27.486a31.955,31.955,0,0,0-47.623.417Zm-.37-60.443a16.913,16.913,0,0,0,5.577,1.984c2.772.644,6.567,1.524,7.984,3.7,1.8,2.758,1.271,9.644-7.782,16.375-2.573,1.912-4.746,2.851-6.108,2.653s-3.172-1.729-5.084-4.3c-.2-.271-7.917-10.3-8.911-11.839a8,8,0,0,0-12.576-2.02c-4.388,4.183-8.4,6.385-11.3,6.172-.693-.048-2.8-.2-5.711-3.87-4.42-5.581-4.631-12.375-.629-20.194a12.062,12.062,0,0,1,6.957-6.271,6.755,6.755,0,0,1,3.7-.291,7.982,7.982,0,0,0,13.952-2.783c.314-1.068,3.242-10.39,9.584-8.767,4.73,1.211,7.746,3.183,8.961,5.86,2.021,4.445-.406,11.169-1.421,13.19A8,8,0,0,0,399.63,222.412ZM56,32H440V239.529a37.055,37.055,0,0,0-10.423-3.123,22.834,22.834,0,0,0-2.973-17.033,23.191,23.191,0,0,0-12.4-9.089c1.115-5.1,1.47-11.657-1.346-17.952-2.268-5.072-7.512-11.769-19.615-14.869-8.94-2.291-17.453.892-23.35,8.732-.623.828-1.186,1.667-1.695,2.493a21.313,21.313,0,0,0-4.931-.272c-7.25.416-16.948,4.671-22.425,15.366a40.455,40.455,0,0,0-4.535,15.252c-14.678,4.405-22.753,12.8-27.052,19.5-.676,1.054-1.279,2.094-1.818,3.11-9.222-6.248-22.781-9.98-38.509-1.643H90.879l-2.934-24.935a8,8,0,0,0-5.136-6.555L56,198.457ZM72.625,221.778,74.769,240H56V215.544ZM145.754,480H54.246l-4-16h99.508Zm22-169.938.007,0L166.246,304H216v16H168v-8A7.983,7.983,0,0,0,167.754,310.062ZM232,320V304h16c0,.231.01.463.03.693L249.361,320Zm24,152a8,8,0,0,0-16-.125c-.949,2.919-11.173,8.125-16,8.125a16.019,16.019,0,0,1-16-16c0-6.185,7.651-14.562,17.515-16.1a8,8,0,0,0,6.677-6.676C234.219,428.187,238.06,424,248,424c7.008,0,14.394,2.006,16.049,16.885a8,8,0,0,0,5.336,6.676C275.437,449.654,280,456.722,280,464a16.019,16.019,0,0,1-16,16C261.253,480,256,476.885,256,472Zm144.355,8,3.129-71.957C411.375,401.393,416,393.1,416,384c0-8.291-3.85-15.914-10.5-22.235l2.5-57.417h-.01c.006-.116.018-.23.018-.347a16,16,0,0,1,32-.312l-9.188,105.664a31.99,31.99,0,0,0-5.152,59.243l-.992,11.4Zm78.2-39.869a8,8,0,0,0-1.292,15.388c2.015.732,2.734,4.862,2.734,8.481a16,16,0,0,1-32,0,8,8,0,0,0-8-8,16,16,0,0,1,0-32c2.171,0,7.3,1.326,9.314,4.394a8,8,0,0,0,14.679-4.72,7.148,7.148,0,0,1,2.213-4.939A8.38,8.38,0,0,1,472,416a16.019,16.019,0,0,1,16,16C488,433.583,488,438.4,478.558,440.131Z" fill="#737373" data-original="#000000" style=""/></g></svg>
